<svg width="24" height="24" viewBox="0 0 24 24" fill="none" xmlns="http://www.w3.org/2000/svg">
<g clip-path="url(#clip0_1460_95)">
<path d="M9.505 6C9.571 6 9.637 6.013 9.7 6.04C9.88 6.12 10 6.3 10 6.5V17.5C10 17.7 9.88 17.88 9.7 17.96C9.64 17.99 9.57 18 9.5 18C9.38 18 9.26 17.95 9.16 17.87L6.03 15H2.98C2.44 15 2 14.56 2 14.02V9.98C2 9.44 2.44 9 2.98 9H6.02L9.16 6.13C9.258 6.046 9.38 6 9.505 6ZM9.505 4C8.899 4 8.312 4.22 7.851 4.62L7.831 4.637L7.811 4.655L5.244 7H2.98C1.337 7 0 8.34 0 9.98V14.02C0 15.665 1.337 17 2.98 17H5.252L7.808 19.344L7.858 19.39L7.911 19.432C8.371 19.798 8.934 20 9.501 20C9.876 20 10.229 19.923 10.551 19.77C11.433 19.36 12.001 18.474 12.001 17.5V6.5C12.001 5.513 11.417 4.615 10.513 4.213C10.193 4.073 9.855 4 9.506 4H9.505ZM14 18C14 17.802 14.058 17.603 14.18 17.428C18.218 11.658 14.264 6.68 14.224 6.63C13.874 6.2 13.941 5.57 14.371 5.224C14.801 4.874 15.434 4.942 15.783 5.37C15.833 5.432 20.718 11.584 15.827 18.572C15.51 19.025 14.884 19.135 14.43 18.82C14.15 18.626 14 18.315 14 18V18Z" fill="#33363F"/>
<path d="M18.092 24C17.856 24 17.618 23.93 17.419 23.786C16.943 23.446 16.861 22.816 17.231 22.383C17.561 21.996 25.226 12.778 17.178 1.549C16.846 1.086 16.986 0.465997 17.491 0.162997C17.995 -0.141003 18.671 -0.0110032 19.004 0.449997C23.664 6.95 23.411 12.896 22.377 16.74C21.257 20.9 19.041 23.51 18.947 23.62C18.733 23.87 18.413 24 18.089 24H18.092Z" fill="#33363F"/>
</g>
<defs>
<clipPath id="clip0_1460_95">
<rect width="24" height="24" fill="white"/>
</clipPath>
</defs>
</svg>
